# xmcd
#
# Track frame offsets: 
#        150
#        25194
#        44521
#        68805
#        87681
#        102544
#        125209
#        141618
#        169753
#        186787
#        205651
#        221552
#        251788
#        272611
#        296193
#
# Disc length: 4786 seconds
#
# Revision: 3
# Processed by: cddbd v1.5.2PL0 Copyright (c) Steve Scherf et al.
# Submitted via: ExactAudioCopy v1.3
#
DISCID=fa12b00f
DTITLE=Various Artist - Trail Of The Wolf - vol.01 - Various Of The B
DTITLE=lues  CD2
DYEAR=2016
DGENRE=Blues
TTITLE0=Larry Tillery - Texas Flood
TTITLE1=Curtis Salgado - Drivin' In The Drivin' Rain
TTITLE2=Rusty Zinn - Falling In Love Again
TTITLE3=Highway Ryders - Runaway Train
TTITLE4=Black Cat Bone - I Don't Want To Sing The Blues No More
TTITLE5=Steve Fister - Deeper Than The Blues
TTITLE6=Terry Quiett Band - The Woodsman
TTITLE7=Interstate Blues - Goodbye Old Friend
TTITLE8=Aynsley Lister - Crazy
TTITLE9=David Gogo - I Found A Love
TTITLE10=Janiva Magness - Things Left Undone
TTITLE11=John Scofield - The Angel Of Death
TTITLE12=Gugun Power Trio - Slaves To The Nation
TTITLE13=The Radio Kings - You're Gonna Make Me Cry
TTITLE14=Simo - Ain't Doin' Nothin'
EXTD=
EXTT0=
EXTT1=
EXTT2=
EXTT3=
EXTT4=
EXTT5=
EXTT6=
EXTT7=
EXTT8=
EXTT9=
EXTT10=
EXTT11=
EXTT12=
EXTT13=
EXTT14=
PLAYORDER=
